<svg width="1440" height="39" viewBox="0 0 1440 39" fill="none" xmlns="http://www.w3.org/2000/svg">
<path fill-rule="evenodd" clip-rule="evenodd" d="M-70.0246 19H-70C-70 27.8366 -62.8366 35 -54 35C-45.1634 35 -38 27.8366 -38 19H-37.9754C-37.4544 8.41889 -28.7104 -2.63171e-06 -18 0C-7.28963 0 1.45441 8.41889 1.97543 19H2C2 27.8366 9.16344 35 18 35C26.8365 35 34 27.8366 34 19H34.0246C34.5456 8.41889 43.2896 -2.63171e-06 54 0C64.7104 0 73.4544 8.41889 73.9754 19H74C74 27.8366 81.1635 35 90 35C98.8365 35 106 27.8366 106 19H106.025C106.546 8.41889 115.29 -2.63171e-06 126 0C136.71 0 145.454 8.41889 145.975 19H146C146 27.8366 153.163 35 162 35C170.837 35 178 27.8366 178 19H178.025C178.546 8.41889 187.29 -2.63171e-06 198 0C208.71 0 217.454 8.41889 217.975 19H218C218 27.8366 225.163 35 234 35C242.837 35 250 27.8366 250 19H250.025C250.546 8.41889 259.29 -2.63171e-06 270 0C280.71 0 289.454 8.41889 289.975 19H290C290 27.8366 297.163 35 306 35C314.837 35 322 27.8366 322 19H322.025C322.546 8.41889 331.29 -2.63171e-06 342 0C352.71 0 361.454 8.41889 361.975 19H362C362 27.8366 369.163 35 378 35C386.837 35 394 27.8366 394 19H394.025C394.546 8.41889 403.29 -2.63171e-06 414 0C424.71 0 433.454 8.41889 433.975 19H434C434 27.8366 441.163 35 450 35C458.837 35 466 27.8366 466 19H466.025C466.546 8.41889 475.29 -2.63171e-06 486 0C496.71 0 505.454 8.41889 505.975 19H506C506 27.8366 513.163 35 522 35C530.837 35 538 27.8366 538 19H538.025C538.546 8.41889 547.29 -2.63171e-06 558 0C568.71 0 577.454 8.41889 577.975 19H578C578 27.8366 585.163 35 594 35C602.837 35 610 27.8366 610 19H610.025C610.546 8.41889 619.29 -2.63171e-06 630 0C640.71 0 649.454 8.41889 649.975 19H650C650 27.8366 657.163 35 666 35C674.837 35 682 27.8366 682 19H682.025C682.546 8.41889 691.29 -2.63171e-06 702 0C712.71 0 721.454 8.41889 721.975 19H722C722 27.8366 729.163 35 738 35C746.837 35 754 27.8366 754 19H754.025C754.546 8.41889 763.29 -2.63171e-06 774 0C784.71 0 793.454 8.41889 793.975 19H794C794 27.8366 801.163 35 810 35C818.837 35 826 27.8366 826 19H826.025C826.546 8.41889 835.29 -2.63171e-06 846 0C856.71 0 865.454 8.41889 865.975 19H866C866 27.8366 873.163 35 882 35C890.837 35 898 27.8366 898 19H898.025C898.546 8.41889 907.29 -2.63171e-06 918 0C928.71 0 937.454 8.41889 937.975 19H938C938 27.8366 945.163 35 954 35C962.837 35 970 27.8366 970 19H970.025C970.546 8.41889 979.29 -2.63171e-06 990 0C1000.71 0 1009.45 8.41889 1009.98 19H1010C1010 27.8366 1017.16 35 1026 35C1034.84 35 1042 27.8366 1042 19H1042.02C1042.55 8.41889 1051.29 -2.63171e-06 1062 0C1072.71 0 1081.45 8.41889 1081.98 19H1082C1082 27.8366 1089.16 35 1098 35C1106.84 35 1114 27.8366 1114 19H1114.02C1114.55 8.41889 1123.29 -2.63171e-06 1134 0C1144.71 0 1153.45 8.41889 1153.98 19H1154C1154 27.8366 1161.16 35 1170 35C1178.84 35 1186 27.8366 1186 19H1186.02C1186.55 8.41889 1195.29 -2.63171e-06 1206 0C1216.71 0 1225.45 8.41889 1225.98 19H1226C1226 27.8366 1233.16 35 1242 35C1250.84 35 1258 27.8366 1258 19H1258.02C1258.55 8.41889 1267.29 -2.63171e-06 1278 0C1288.71 0 1297.45 8.41889 1297.98 19H1298C1298 27.8366 1305.16 35 1314 35C1322.84 35 1330 27.8366 1330 19H1330.02C1330.55 8.41889 1339.29 -2.63171e-06 1350 0C1360.71 0 1369.45 8.41889 1369.98 19H1370C1370 27.8366 1377.16 35 1386 35C1394.84 35 1402 27.8366 1402 19H1402.02C1402.55 8.41889 1411.29 -2.63171e-06 1422 0C1432.71 0 1441.45 8.41889 1441.98 19H1442C1442 27.8366 1449.16 35 1458 35C1466.84 35 1474 27.8366 1474 19H1474.02C1474.55 8.41889 1483.29 -2.63171e-06 1494 0C1504.71 0 1513.45 8.41889 1513.98 19H1514C1514 27.8366 1521.16 35 1530 35C1538.84 35 1546 27.8366 1546 19H1546.02C1546.55 8.41889 1555.29 -2.63171e-06 1566 0C1577.05 0 1586 8.95431 1586 20H1582C1582 11.1634 1574.84 4 1566 4C1557.16 4 1550 11.1634 1550 20H1549.98C1549.45 30.5811 1540.71 39 1530 39C1519.29 39 1510.55 30.5811 1510.02 20H1510C1510 11.1634 1502.84 4 1494 4C1485.16 4 1478 11.1634 1478 20H1477.98C1477.45 30.5811 1468.71 39 1458 39C1447.29 39 1438.55 30.5811 1438.02 20H1438C1438 11.1634 1430.84 4 1422 4C1413.16 4 1406 11.1634 1406 20H1405.98C1405.45 30.5811 1396.71 39 1386 39C1375.29 39 1366.55 30.5811 1366.02 20H1366C1366 11.1634 1358.84 4 1350 4C1341.16 4 1334 11.1634 1334 20H1333.98C1333.45 30.5811 1324.71 39 1314 39C1303.29 39 1294.55 30.5811 1294.02 20H1294C1294 11.1634 1286.84 4 1278 4C1269.16 4 1262 11.1634 1262 20H1261.98C1261.45 30.5811 1252.71 39 1242 39C1231.29 39 1222.55 30.5811 1222.02 20H1222C1222 11.1634 1214.84 4 1206 4C1197.16 4 1190 11.1634 1190 20H1189.98C1189.45 30.5811 1180.71 39 1170 39C1159.29 39 1150.55 30.5811 1150.02 20H1150C1150 11.1634 1142.84 4 1134 4C1125.16 4 1118 11.1634 1118 20H1117.98C1117.45 30.5811 1108.71 39 1098 39C1087.29 39 1078.55 30.5811 1078.02 20H1078C1078 11.1634 1070.84 4 1062 4C1053.16 4 1046 11.1634 1046 20H1045.98C1045.45 30.5811 1036.71 39 1026 39C1015.29 39 1006.55 30.5811 1006.02 20H1006C1006 11.1634 998.837 4 990 4C981.163 4 974 11.1634 974 20H973.975C973.454 30.5811 964.71 39 954 39C943.29 39 934.546 30.5811 934.025 20H934C934 11.1634 926.837 4 918 4C909.163 4 902 11.1634 902 20H901.975C901.454 30.5811 892.71 39 882 39C871.29 39 862.546 30.5811 862.025 20H862C862 11.1634 854.837 4 846 4C837.163 4 830 11.1634 830 20H829.975C829.454 30.5811 820.71 39 810 39C799.29 39 790.546 30.5811 790.025 20H790C790 11.1634 782.837 4 774 4C765.163 4 758 11.1634 758 20H757.975C757.454 30.5811 748.71 39 738 39C727.29 39 718.546 30.5811 718.025 20H718C718 11.1634 710.837 4 702 4C693.163 4 686 11.1634 686 20H685.975C685.454 30.5811 676.71 39 666 39C655.29 39 646.546 30.5811 646.025 20H646C646 11.1634 638.837 4 630 4C621.163 4 614 11.1634 614 20H613.975C613.454 30.5811 604.71 39 594 39C583.29 39 574.546 30.5811 574.025 20H574C574 11.1634 566.837 4 558 4C549.163 4 542 11.1634 542 20H541.975C541.454 30.5811 532.71 39 522 39C511.29 39 502.546 30.5811 502.025 20H502C502 11.1634 494.837 4 486 4C477.163 4 470 11.1634 470 20H469.975C469.454 30.5811 460.71 39 450 39C439.29 39 430.546 30.5811 430.025 20H430C430 11.1634 422.837 4 414 4C405.163 4 398 11.1634 398 20H397.975C397.454 30.5811 388.71 39 378 39C367.29 39 358.546 30.5811 358.025 20H358C358 11.1634 350.837 4 342 4C333.163 4 326 11.1634 326 20H325.975C325.454 30.5811 316.71 39 306 39C295.29 39 286.546 30.5811 286.025 20H286C286 11.1634 278.837 4 270 4C261.163 4 254 11.1634 254 20H253.975C253.454 30.5811 244.71 39 234 39C223.29 39 214.546 30.5811 214.025 20H214C214 11.1634 206.837 4 198 4C189.163 4 182 11.1634 182 20H181.975C181.454 30.5811 172.71 39 162 39C151.29 39 142.546 30.5811 142.025 20H142C142 11.1634 134.837 4 126 4C117.163 4 110 11.1634 110 20H109.975C109.454 30.5811 100.71 39 90 39C79.2896 39 70.5456 30.5811 70.0246 20H70C70 11.1634 62.8365 4 54 4C45.1635 4 38 11.1634 38 20H37.9754C37.4544 30.5811 28.7104 39 18 39C7.28963 39 -1.45441 30.5811 -1.97543 20H-2C-2 11.1634 -9.16344 4 -18 4C-26.8366 4 -34 11.1634 -34 20H-34.0246C-34.5456 30.5811 -43.2896 39 -54 39C-64.7104 39 -73.4544 30.5811 -73.9754 20H-74C-74 11.1634 -81.1634 4 -90 4C-98.8366 4 -106 11.1634 -106 20H-106.025C-106.546 30.5811 -115.29 39 -126 39C-137.046 39 -146 30.0457 -146 19H-142C-142 27.8366 -134.837 35 -126 35C-117.163 35 -110 27.8366 -110 19H-109.975C-109.454 8.41889 -100.71 -2.63171e-06 -90 0C-79.2896 0 -70.5456 8.41889 -70.0246 19Z" fill="#2DC5FA" fill-opacity="0.05"/>
</svg>
